<svg xmlns="http://www.w3.org/2000/svg" viewBox="0 0 800 525" preserveAspectRatio="xMidYMax slice">
  <!-- REPLACE: real Abuja development photograph -->
  <defs>
    <linearGradient id="ab-sky" x1="0" y1="0" x2="0" y2="1">
      <stop offset="0" stop-color="#041F17"/><stop offset="0.62" stop-color="#0E4636"/><stop offset="1" stop-color="#DBB84D" stop-opacity="0.4"/>
    </linearGradient>
  </defs>
  <rect width="800" height="525" fill="url(#ab-sky)"/>
  <circle cx="170" cy="310" r="60" fill="#DBB84D" opacity="0.7"/>
  <!-- terraced mid-rise homes -->
  <g>
    <g transform="translate(90,300)">
      <rect x="0" y="0" width="170" height="170" fill="#05241A"/>
      <rect x="0" y="-10" width="170" height="12" fill="#0B3B2E"/>
      <g fill="#E9D08A">
        <rect x="20" y="18" width="30" height="24" opacity="0.9"/><rect x="70" y="18" width="30" height="24" opacity="0.6"/><rect x="120" y="18" width="30" height="24"/>
        <rect x="20" y="62" width="30" height="24"/><rect x="70" y="62" width="30" height="24" opacity="0.7"/><rect x="120" y="62" width="30" height="24" opacity="0.55"/>
        <rect x="20" y="106" width="30" height="24" opacity="0.65"/><rect x="70" y="106" width="30" height="24"/><rect x="120" y="106" width="30" height="24" opacity="0.8"/>
      </g>
    </g>
    <g transform="translate(320,340)">
      <rect x="0" y="0" width="180" height="130" fill="#062A1E"/>
      <rect x="0" y="-9" width="180" height="11" fill="#0E4636"/>
      <g fill="#DBB84D">
        <rect x="22" y="18" width="30" height="24" opacity="0.85"/><rect x="75" y="18" width="30" height="24"/><rect x="128" y="18" width="30" height="24" opacity="0.6"/>
        <rect x="22" y="66" width="30" height="24"/><rect x="75" y="66" width="30" height="46" opacity="0.9"/><rect x="128" y="66" width="30" height="24" opacity="0.75"/>
      </g>
    </g>
    <g transform="translate(560,310)">
      <rect x="0" y="0" width="160" height="160" fill="#05241A"/>
      <rect x="0" y="-10" width="160" height="12" fill="#0B3B2E"/>
      <g fill="#E9D08A">
        <rect x="18" y="18" width="28" height="22" opacity="0.7"/><rect x="66" y="18" width="28" height="22"/><rect x="114" y="18" width="28" height="22" opacity="0.85"/>
        <rect x="18" y="60" width="28" height="22"/><rect x="66" y="60" width="28" height="22" opacity="0.55"/><rect x="114" y="60" width="28" height="22"/>
        <rect x="18" y="102" width="28" height="22" opacity="0.8"/><rect x="66" y="102" width="28" height="22"/><rect x="114" y="102" width="28" height="22" opacity="0.6"/>
      </g>
    </g>
  </g>
  <rect x="0" y="470" width="800" height="55" fill="#03170F"/>
  <g transform="translate(280,470)"><rect x="-4" y="-28" width="8" height="28" fill="#03170F"/><circle cx="0" cy="-40" r="21" fill="#0E4636"/></g>
  <g transform="translate(540,472)"><rect x="-4" y="-26" width="8" height="26" fill="#03170F"/><circle cx="0" cy="-38" r="19" fill="#11503F"/></g>
</svg>
