<svg xmlns="http://www.w3.org/2000/svg" viewBox="0 0 800 525" preserveAspectRatio="xMidYMax slice">
  <!-- REPLACE: real TAF City photograph -->
  <defs>
    <linearGradient id="tc-sky" x1="0" y1="0" x2="0" y2="1">
      <stop offset="0" stop-color="#072A21"/><stop offset="0.65" stop-color="#155844"/><stop offset="1" stop-color="#C9A227" stop-opacity="0.55"/>
    </linearGradient>
  </defs>
  <rect width="800" height="525" fill="url(#tc-sky)"/>
  <circle cx="590" cy="330" r="78" fill="#DBB84D" opacity="0.8"/>
  <g fill="#0A3226">
    <rect x="30" y="330" width="60" height="130"/><rect x="120" y="300" width="46" height="160"/>
    <rect x="620" y="315" width="52" height="145"/><rect x="700" y="340" width="70" height="120"/>
  </g>
  <g>
    <rect x="200" y="200" width="110" height="260" fill="#05241A"/>
    <rect x="340" y="150" width="130" height="310" fill="#062A1E"/>
    <rect x="500" y="240" width="100" height="220" fill="#05241A"/>
    <g fill="#E9D08A">
      <rect x="214" y="216" width="16" height="13"/><rect x="246" y="216" width="16" height="13" opacity="0.6"/><rect x="278" y="216" width="16" height="13"/>
      <rect x="214" y="248" width="16" height="13" opacity="0.7"/><rect x="246" y="248" width="16" height="13"/><rect x="278" y="248" width="16" height="13" opacity="0.5"/>
      <rect x="214" y="280" width="16" height="13"/><rect x="246" y="280" width="16" height="13" opacity="0.6"/><rect x="278" y="280" width="16" height="13" opacity="0.8"/>
      <rect x="214" y="312" width="16" height="13" opacity="0.5"/><rect x="246" y="312" width="16" height="13"/><rect x="278" y="312" width="16" height="13" opacity="0.7"/>
      <rect x="356" y="170" width="18" height="14"/><rect x="392" y="170" width="18" height="14" opacity="0.6"/><rect x="428" y="170" width="18" height="14"/>
      <rect x="356" y="206" width="18" height="14" opacity="0.7"/><rect x="392" y="206" width="18" height="14"/><rect x="428" y="206" width="18" height="14" opacity="0.5"/>
      <rect x="356" y="242" width="18" height="14"/><rect x="392" y="242" width="18" height="14" opacity="0.75"/><rect x="428" y="242" width="18" height="14"/>
      <rect x="356" y="278" width="18" height="14" opacity="0.6"/><rect x="392" y="278" width="18" height="14"/><rect x="428" y="278" width="18" height="14" opacity="0.65"/>
      <rect x="356" y="314" width="18" height="14"/><rect x="392" y="314" width="18" height="14" opacity="0.5"/><rect x="428" y="314" width="18" height="14" opacity="0.85"/>
      <rect x="514" y="256" width="16" height="13" opacity="0.8"/><rect x="546" y="256" width="16" height="13"/><rect x="578" y="256" width="16" height="13" opacity="0.6"/>
      <rect x="514" y="288" width="16" height="13"/><rect x="546" y="288" width="16" height="13" opacity="0.55"/><rect x="578" y="288" width="16" height="13"/>
      <rect x="514" y="320" width="16" height="13" opacity="0.7"/><rect x="546" y="320" width="16" height="13"/><rect x="578" y="320" width="16" height="13" opacity="0.75"/>
    </g>
    <rect x="340" y="140" width="130" height="12" fill="#0B3B2E"/>
  </g>
  <rect x="0" y="460" width="800" height="65" fill="#03170F"/>
  <path d="M120 460 L120 415 L140 415" stroke="#0E4636" stroke-width="4" fill="none" stroke-linecap="round"/>
  <circle cx="145" cy="415" r="5" fill="#F2DC9B"/>
</svg>
